<svg width="147" height="204" viewBox="0 0 147 204" fill="none" xmlns="http://www.w3.org/2000/svg">
<g clip-path="url(#clip0)">
<path d="M1.0942 200.126H14.2095C18.8051 200.126 20.586 198.802 20.586 195.428C20.586 193.189 19.6277 191.592 17.9449 191.048C17.1223 190.775 15.9451 190.684 13.304 190.684H10.7911C7.14625 190.684 4.82957 190.231 3.22977 189.224C1.13948 187.893 0 185.608 0 182.733C0 179.404 1.54697 176.567 4.14286 174.971C5.87094 173.964 8.01407 173.556 11.7947 173.556H24.2686V177.437H11.7947C9.10826 177.437 7.92351 177.664 6.87459 178.307C5.82567 179.041 5.14651 180.41 5.14651 182.052C5.14651 185.109 7.01042 186.296 11.7947 186.296H13.6133C18.7599 186.296 20.8954 186.705 22.5858 187.938C24.5402 189.444 25.725 192.137 25.725 195.284C25.725 198.757 24.2233 201.45 21.5369 202.82C19.7635 203.735 17.9826 204.008 13.6133 204.008H1.0942V200.126Z" fill="#808080"/>
<path d="M40.1155 173.556H46.4921L58.5585 204H53.412L50.318 196.056H35.9199L32.6901 204H27.5436L40.1155 173.556ZM37.3838 192.182H48.7635L43.2095 177.21L37.3838 192.182Z" fill="#808080"/>
<path d="M62.0146 173.556H76.5411C81.2273 173.556 83.2346 174.101 84.8721 175.795C86.238 177.21 87.0152 179.223 87.0152 181.364C87.0152 184.647 85.5135 186.887 82.329 188.347C85.9286 189.625 87.4755 191.774 87.4755 195.375C87.4755 198.296 86.2908 200.762 84.2005 202.267C82.4724 203.455 79.7859 204 75.3714 204H62.0146V173.556ZM76.5335 186.433C78.488 186.433 79.5369 186.206 80.4047 185.517C81.4084 184.738 81.997 183.459 81.997 181.908C81.997 180.539 81.5442 179.306 80.7217 178.534C79.8539 177.664 78.9936 177.437 76.5335 177.437H66.8819V186.433H76.5335ZM76.126 200.126C80.2689 200.126 82.3215 198.485 82.3215 195.057C82.3215 191.683 80.6387 190.314 76.5411 190.314H66.8819V200.126H76.126Z" fill="#808080"/>
<path d="M114.234 177.437H105.405C99.3533 177.165 96.3876 180.13 96.116 186.75H114.234V190.632H96.0707C96.2065 197.07 99.4363 200.444 105.134 200.126H114.242V204.008H104.273C99.0363 204.008 96.1688 202.911 93.8898 200.081C91.7014 197.297 90.7506 194.059 90.7506 189.398C90.7506 183.331 92.3881 179.033 95.8066 176.158C97.995 174.335 100.953 173.556 105.685 173.556H114.242V177.437H114.234Z" fill="#808080"/>
<path d="M124.482 204H119.607V173.556H133.447C137.635 173.556 140.186 174.055 141.823 175.198C143.966 176.612 145.189 179.17 145.189 181.999C145.189 184.556 144.276 186.75 142.638 188.165C141.589 189.081 140.684 189.489 138.858 189.988C142.91 191.766 144.095 193.733 144.457 199.393C144.683 203.001 144.683 203.001 145.279 204H140.269C140.133 203.682 140.042 203.41 139.952 202.858C139.907 202.585 139.861 202.033 139.771 201.17L139.635 199.62C139.001 193.181 136.586 191.176 129.297 191.131H124.467V204H124.482ZM133.13 187.25C135.862 187.25 137.409 186.977 138.277 186.334C139.461 185.419 140.05 184.095 140.05 182.317C140.05 180.403 139.363 178.844 138.095 178.118C137.318 177.619 135.998 177.429 133.13 177.429H124.482V187.242H133.13V187.25Z" fill="#808080"/>
<path d="M107.492 91.4886L90.8341 123.127L92.1687 123.833L108.827 92.1949L107.492 91.4886Z" fill="#CCCCCC"/>
<path d="M107.892 90.381L85.8484 98.9884L86.3961 100.398L108.44 91.791L107.892 90.381Z" fill="#CCCCCC"/>
<path d="M133.107 8.50589L131.674 8.98087L141.05 37.4105L142.483 36.9355L133.107 8.50589Z" fill="#CCCCCC"/>
<path d="M142.525 37.1624H141.016V62.0988H142.525V37.1624Z" fill="#CCCCCC"/>
<path d="M121.185 44.248L106.557 73.1356L107.903 73.8206L122.531 44.933L121.185 44.248Z" fill="#CCCCCC"/>
<path d="M131.673 8.52043L121.131 44.3698L122.578 44.7978L133.121 8.94834L131.673 8.52043Z" fill="#CCCCCC"/>
<path d="M136.651 84.3369L116.33 106.304L117.437 107.332L137.757 85.3659L136.651 84.3369Z" fill="#CCCCCC"/>
<path d="M91.1534 122.807L68.7443 134.908L69.4599 136.24L91.8691 124.139L91.1534 122.807Z" fill="#CCCCCC"/>
<path d="M68.8968 134.85L36.5085 144.08L36.9212 145.535L69.3094 136.306L68.8968 134.85Z" fill="#CCCCCC"/>
<path d="M47.4737 129.667L6.62311 151.137L7.32385 152.477L48.1744 131.007L47.4737 129.667Z" fill="#CCCCCC"/>
<path d="M36.5417 144.081L6.79077 151.065L7.13488 152.538L36.8859 145.554L36.5417 144.081Z" fill="#CCCCCC"/>
<path d="M66.0365 116.011L47.3707 129.729L48.263 130.949L66.9288 117.231L66.0365 116.011Z" fill="#CCCCCC"/>
<path d="M85.6289 99.1211L65.9957 116.043L66.9796 117.19L86.6128 100.268L85.6289 99.1211Z" fill="#CCCCCC"/>
<path d="M106.635 73.0062L85.5355 99.227L86.7102 100.177L107.81 73.9563L106.635 73.0062Z" fill="#CCCCCC"/>
<path d="M141.028 61.937L136.463 84.6935L137.943 84.9919L142.508 62.2354L141.028 61.937Z" fill="#CCCCCC"/>
<path d="M116.467 106.182L91.0913 122.846L91.9182 124.112L117.294 107.448L116.467 106.182Z" fill="#CCCCCC"/>
<path d="M122.611 44.54L121.104 44.632L122.746 71.6607L124.253 71.5687L122.611 44.54Z" fill="#CCCCCC"/>
<path d="M122.895 71.1513L107.574 90.6303L108.759 91.5672L124.08 72.0882L122.895 71.1513Z" fill="#CCCCCC"/>
<path d="M124.004 71.0714L122.957 72.1613L136.671 85.4009L137.718 84.3109L124.004 71.0714Z" fill="#CCCCCC"/>
<path d="M67.2315 116.518L65.7365 116.725L68.3501 135.686L69.8452 135.479L67.2315 116.518Z" fill="#CCCCCC"/>
<path d="M47.9989 129.606L47.6388 131.076L68.9196 136.318L69.2797 134.848L47.9989 129.606Z" fill="#CCCCCC"/>
<path d="M141.5 36.4614L121.58 43.8776L122.105 45.296L142.025 37.8798L141.5 36.4614Z" fill="#CCCCCC"/>
<path d="M132.391 17.4766C137.204 17.4766 141.106 13.5644 141.106 8.73832C141.106 3.91228 137.204 0 132.391 0C127.577 0 123.675 3.91228 123.675 8.73832C123.675 13.5644 127.577 17.4766 132.391 17.4766Z" fill="#6DD400"/>
<path d="M6.97269 158.788C10.8236 158.788 13.9454 155.658 13.9454 151.797C13.9454 147.936 10.8236 144.806 6.97269 144.806C3.12178 144.806 0 147.936 0 151.797C0 155.658 3.12178 158.788 6.97269 158.788Z" fill="#32C5FF"/>
<path d="M121.849 51.575C125.699 51.575 128.821 48.4452 128.821 44.5843C128.821 40.7235 125.699 37.5937 121.849 37.5937C117.998 37.5937 114.876 40.7235 114.876 44.5843C114.876 48.4452 117.998 51.575 121.849 51.575Z" fill="#32C5FF"/>
<path d="M123.494 80.3547C128.307 80.3547 132.209 76.4424 132.209 71.6164C132.209 66.7903 128.307 62.8781 123.494 62.8781C118.68 62.8781 114.778 66.7903 114.778 71.6164C114.778 76.4424 118.68 80.3547 123.494 80.3547Z" fill="#6DD400"/>
<path d="M108.175 98.0885C112.026 98.0885 115.148 94.9587 115.148 91.0979C115.148 87.2371 112.026 84.1072 108.175 84.1072C104.324 84.1072 101.202 87.2371 101.202 91.0979C101.202 94.9587 104.324 98.0885 108.175 98.0885Z" fill="#32C5FF"/>
<path d="M47.8202 139.079C52.6339 139.079 56.5361 135.167 56.5361 130.341C56.5361 125.515 52.6339 121.603 47.8202 121.603C43.0066 121.603 39.1044 125.515 39.1044 130.341C39.1044 135.167 43.0066 139.079 47.8202 139.079Z" fill="#6DD400"/>
<path d="M86.1248 108.438C90.9384 108.438 94.8407 104.526 94.8407 99.7C94.8407 94.874 90.9384 90.9617 86.1248 90.9617C81.3112 90.9617 77.4089 94.874 77.4089 99.7C77.4089 104.526 81.3112 108.438 86.1248 108.438Z" fill="#6DD400"/>
<path d="M137.205 91.8469C141.056 91.8469 144.178 88.7171 144.178 84.8563C144.178 80.9954 141.056 77.8656 137.205 77.8656C133.354 77.8656 130.232 80.9954 130.232 84.8563C130.232 88.7171 133.354 91.8469 137.205 91.8469Z" fill="#32C5FF"/>
<path d="M116.883 115.558C121.697 115.558 125.599 111.645 125.599 106.819C125.599 101.993 121.697 98.081 116.883 98.081C112.069 98.081 108.167 101.993 108.167 106.819C108.167 111.645 112.069 115.558 116.883 115.558Z" fill="#6DD400"/>
<path d="M91.5053 130.47C95.3562 130.47 98.478 127.34 98.478 123.479C98.478 119.618 95.3562 116.488 91.5053 116.488C87.6544 116.488 84.5326 119.618 84.5326 123.479C84.5326 127.34 87.6544 130.47 91.5053 130.47Z" fill="#32C5FF"/>
<path d="M141.771 42.4054C144.659 42.4054 147 40.0581 147 37.1625C147 34.2668 144.659 31.9195 141.771 31.9195C138.882 31.9195 136.541 34.2668 136.541 37.1625C136.541 40.0581 138.882 42.4054 141.771 42.4054Z" fill="#F7B500"/>
<path d="M141.771 67.3418C144.659 67.3418 147 64.9944 147 62.0988C147 59.2032 144.659 56.8558 141.771 56.8558C138.882 56.8558 136.541 59.2032 136.541 62.0988C136.541 64.9944 138.882 67.3418 141.771 67.3418Z" fill="#F7B500"/>
<path d="M107.224 78.7205C110.112 78.7205 112.454 76.3732 112.454 73.4775C112.454 70.5819 110.112 68.2346 107.224 68.2346C104.336 68.2346 101.995 70.5819 101.995 73.4775C101.995 76.3732 104.336 78.7205 107.224 78.7205Z" fill="#F7B500"/>
<path d="M66.4895 121.86C69.3777 121.86 71.719 119.512 71.719 116.617C71.719 113.721 69.3777 111.374 66.4895 111.374C63.6013 111.374 61.26 113.721 61.26 116.617C61.26 119.512 63.6013 121.86 66.4895 121.86Z" fill="#F7B500"/>
<path d="M69.1006 140.819C71.9888 140.819 74.3301 138.472 74.3301 135.576C74.3301 132.681 71.9888 130.333 69.1006 130.333C66.2124 130.333 63.8711 132.681 63.8711 135.576C63.8711 138.472 66.2124 140.819 69.1006 140.819Z" fill="#F7B500"/>
<path d="M36.7199 150.049C39.6081 150.049 41.9494 147.702 41.9494 144.806C41.9494 141.911 39.6081 139.563 36.7199 139.563C33.8317 139.563 31.4904 141.911 31.4904 144.806C31.4904 147.702 33.8317 150.049 36.7199 150.049Z" fill="#F7B500"/>
</g>
<defs>
<clipPath id="clip0">
<rect width="147" height="204" fill="white"/>
</clipPath>
</defs>
</svg>
